PathFileType	4	(X/Y/Z)	C:/Users/opensim2020/Desktop/walking_exp_matlab/subject01_walking06_straight_02.trc	
DataRate	CameraRate	NumFrames	NumMarkers	Units	OrigDataRate	OrigDataStartFrame	OrigNumFrames	
100.00	100.00	6	43	mm	100.00	1579	171	
Frame#	Time	LFHD			RFHD			LBHD			RBHD			C7			T10			CLAV			STRN			RBAK			LSHO			LUPA			LELB			LFRM			LWRA			LWRB			LFIN			RSHO			RUPA			RELB			RFRM			RWRA			RWRB			RFIN			LASI			RASI			LPSI			RPSI			LTHI			LKNE			LTIB			LANK			LHEE			LTOE			RTHI			RKNE			RTIB			RANK			RHEE			RTOE			*39			*40			*41			*42			
		X1	Y1	Z1	X2	Y2	Z2	X3	Y3	Z3	X4	Y4	Z4	X5	Y5	Z5	X6	Y6	Z6	X7	Y7	Z7	X8	Y8	Z8	X9	Y9	Z9	X10	Y10	Z10	X11	Y11	Z11	X12	Y12	Z12	X13	Y13	Z13	X14	Y14	Z14	X15	Y15	Z15	X16	Y16	Z16	X17	Y17	Z17	X18	Y18	Z18	X19	Y19	Z19	X20	Y20	Z20	X21	Y21	Z21	X22	Y22	Z22	X23	Y23	Z23	X24	Y24	Z24	X25	Y25	Z25	X26	Y26	Z26	X27	Y27	Z27	X28	Y28	Z28	X29	Y29	Z29	X30	Y30	Z30	X31	Y31	Z31	X32	Y32	Z32	X33	Y33	Z33	X34	Y34	Z34	X35	Y35	Z35	X36	Y36	Z36	X37	Y37	Z37	X38	Y38	Z38	X39	Y39	Z39	X40	Y40	Z40	X41	Y41	Z41	X42	Y42	Z42	X43	Y43	Z43	

65	0.640	-1048.56567	261.70538	1667.20520	-1159.67029	230.96121	1670.61682	-1074.75024	378.05020	1629.53320	-1192.80396	349.40884	1633.29993	-1108.49756	420.51147	1434.32935	-1118.02368	463.33157	1142.08679	-1110.19104	277.66757	1363.26331	-1105.66138	237.39728	1208.64783	-1185.89966	479.81641	1242.11536	-949.02393	335.04242	1394.14111	-859.96033	330.60458	1211.36877	-852.99811	305.77802	1060.78735	-830.88702	226.45250	976.43225	-856.24384	109.79932	902.37982	-826.19952	155.49573	876.91168	-822.25989	82.05453	833.99005	-1261.60742	340.49335	1394.34253	-1358.57581	418.75821	1199.73914	-1359.27466	432.59039	1076.33032	-1391.37817	421.74182	957.09216	-1379.76917	353.81445	831.03607	-1414.41125	401.11206	837.95917	-1414.00073	376.14127	754.70447	-1010.41791	298.02676	929.83063	-1226.56433	289.74103	938.90051	-1073.02954	481.60620	944.52539	-1218.65283	472.96857	945.48816	-973.19580	367.28775	598.40259	-994.56104	396.04675	465.40689	-997.10431	472.87317	290.86731	-1062.04968	526.92377	81.49554	-1117.19043	572.54254	58.24584	-1050.63831	383.59991	35.79995	-1296.42883	241.15080	622.15002	-1271.87244	192.89676	469.94742	-1279.71753	245.65788	301.66605	-1234.67932	265.93039	94.81628	-1179.49365	309.26059	54.90377	-1247.70178	131.75314	53.21515	-1139.09192	243.93045	1705.54236	-3101.99487	1973.17981	1023.35492	-3140.59717	2012.56848	1022.09900			 
66	0.650	-1049.49353	251.79929	1666.49866	-1160.56689	221.07788	1669.73608	-1075.75452	368.25958	1628.92261	-1193.66809	339.59836	1632.42578	-1109.14270	410.77539	1433.60327	-1118.86108	453.64209	1141.38293	-1110.68042	267.99377	1362.44495	-1105.84302	227.68559	1207.86243	-1186.24158	470.11703	1241.30042	-949.58624	325.34506	1393.69824	-860.30048	320.53305	1211.21741	-852.61200	294.20676	1061.05005	-830.45166	213.29802	977.88855	-855.49951	95.24049	906.16718	-825.77045	140.50053	879.67657	-821.47400	66.09817	838.36285	-1262.22485	330.75220	1393.39697	-1358.69934	410.17276	1198.97266	-1359.26550	424.47202	1075.69055	-1391.35034	414.39081	956.35199	-1379.97302	347.67538	829.75720	-1414.44702	394.51999	837.21814	-1414.06128	369.52020	753.55023	-1010.42487	289.16412	929.07196	-1226.78589	279.51831	938.04016	-1074.09705	472.36560	944.13879	-1219.53369	463.04251	944.86084	-973.27826	361.77753	598.30475	-994.44812	392.31378	465.54922	-997.44434	470.27237	291.71317	-1062.06104	526.58624	82.68116	-1117.30725	572.15955	59.92424	-1050.60388	383.59576	35.86813	-1295.72424	233.41153	620.08350	-1270.74561	183.88251	469.12976	-1279.89038	227.83142	298.87561	-1236.07007	234.66713	90.18015	-1181.45654	275.90518	48.23792	-1247.04651	97.64610	55.47225	-1139.98755	234.22086	1704.61719	-3101.91675	1973.11694	1023.46796	-3140.59180	2012.61731	1022.04877			 
67	0.660	-1050.49023	242.01913	1665.71130	-1161.61072	211.27667	1668.84766	-1076.50781	358.33804	1628.11011	-1194.68579	329.81500	1631.51868	-1109.83813	401.01508	1432.79419	-1119.96741	444.19534	1140.65503	-1111.34985	258.23462	1361.59448	-1106.08069	217.91718	1206.97229	-1186.78992	460.29568	1240.35645	-950.31024	315.54047	1393.12561	-860.55768	310.19818	1210.99316	-852.53040	282.28928	1060.84534	-830.11786	200.34259	979.17480	-854.86499	80.95928	909.76923	-825.39948	125.84336	882.24463	-820.65948	50.77125	842.64685	-1262.92578	320.97885	1392.37695	-1358.91333	401.55750	1198.19836	-1359.34363	416.25327	1074.96484	-1391.26807	406.58453	955.45923	-1380.02661	340.63510	828.74835	-1414.32178	387.44742	836.25562	-1414.07019	362.78348	752.60663	-1010.56219	280.14395	928.36792	-1226.97327	269.06406	937.08087	-1075.41187	462.98206	943.67053	-1220.56348	453.00824	944.08838	-973.31787	356.05841	598.25671	-994.43848	387.94101	465.61542	-997.54950	467.88702	292.60526	-1062.04236	526.05859	84.04917	-1117.39612	571.75494	61.78273	-1050.55957	383.56015	35.81340	-1295.10522	226.94540	617.01422	-1269.57056	174.99995	468.25967	-1279.95825	210.25890	296.32559	-1237.28491	204.11716	87.01991	-1183.11389	243.62738	43.08353	-1246.55725	65.07504	58.62844	-1141.12573	224.36600	1703.79297	-3102.01538	1973.37646	1023.00916	-3140.63110	2012.62805	1022.04407			 
68	0.670	-1051.57678	232.20407	1664.91833	-1162.70923	201.44904	1667.86426	-1077.63818	348.51602	1627.21680	-1195.45239	320.11618	1630.35596	-1110.76550	391.30176	1431.96606	-1121.23230	434.63675	1139.90234	-1112.09375	248.52779	1360.68176	-1106.43005	208.18033	1206.11353	-1187.48254	450.45502	1239.34949	-951.16534	305.74170	1392.51318	-860.82928	299.56671	1210.65881	-852.19312	271.48907	1060.89392	-829.87439	187.76204	980.35175	-854.38635	67.20329	913.10669	-825.07434	111.52187	884.71655	-820.02625	35.76176	846.71442	-1263.81384	311.16513	1391.40527	-1359.30347	392.86765	1197.42053	-1359.51147	407.98846	1074.14954	-1391.46106	398.97937	954.70789	-1380.22363	333.22443	827.65765	-1414.40112	380.25864	835.36230	-1414.08130	355.81119	751.59955	-1010.58478	271.01093	927.85962	-1227.13550	258.44003	936.18652	-1076.80737	453.41058	943.19263	-1221.80481	442.76379	943.29651	-973.32629	350.11951	598.20380	-994.32983	383.42896	465.70328	-997.65900	465.10876	293.57843	-1062.25171	525.26898	85.41590	-1117.46814	571.21014	63.77308	-1050.48706	383.85144	35.67410	-1294.94849	220.68852	614.50793	-1268.73572	166.16353	467.10919	-1280.19019	192.83742	294.29153	-1238.31067	175.05397	85.22346	-1184.58301	212.70863	39.23495	-1246.44983	33.97914	63.79973	-1142.31189	214.58162	1702.76953	-3101.77686	1973.17517	1023.31396	-3140.61841	2012.52893	1022.02533			 
69	0.680	-1052.90894	222.33488	1663.96106	-1163.87219	191.63977	1666.87097	-1078.95410	338.75397	1626.32617	-1196.59082	310.29474	1629.32043	-1111.76990	381.48499	1431.14197	-1122.53857	424.88263	1139.05310	-1113.00598	238.81302	1359.69580	-1106.91919	198.38324	1205.27722	-1188.47437	440.56552	1238.29309	-952.15515	295.94592	1391.80310	-861.32562	289.25116	1210.36548	-852.55383	260.22449	1060.45117	-829.68170	175.37801	981.41150	-853.99139	53.84507	916.22168	-824.71704	97.66762	887.02643	-819.54547	21.01041	850.48926	-1264.83337	301.30225	1390.36499	-1359.63855	384.03870	1196.52820	-1359.77820	399.59402	1073.29944	-1391.65625	390.99274	953.79486	-1380.33704	325.69714	826.59436	-1414.23572	372.69620	834.30219	-1414.15295	348.55359	750.59229	-1010.62158	261.66138	927.37683	-1227.21106	247.68616	935.15112	-1078.33191	443.70444	942.59271	-1223.08508	432.32187	942.46771	-973.22473	343.99744	598.19037	-994.23767	378.43036	465.86050	-997.73083	462.08362	294.63943	-1062.29773	524.48041	86.96666	-1117.61218	570.62726	65.98665	-1050.43787	383.74219	35.50499	-1295.30701	214.68317	611.82538	-1267.94775	157.08583	466.05167	-1280.38477	175.57646	292.80450	-1238.89038	147.74214	84.38260	-1185.62671	183.43568	36.60186	-1245.96362	5.35255	69.35417	-1143.44812	204.79970	1701.82080	-3101.94775	1973.04517	1023.56378	-3140.59961	2012.55530	1022.10455			 
70	0.690	-1054.07178	212.62480	1663.14783	-1165.21863	181.78929	1665.92126	-1080.12122	328.91061	1625.38989	-1197.79260	300.45923	1628.28003	-1112.96362	371.75458	1430.26514	-1123.90540	414.93274	1138.07117	-1113.99304	229.09340	1358.67090	-1107.49890	188.55302	1204.43616	-1189.60693	430.61304	1237.14526	-953.27905	286.23419	1391.06165	-862.14160	279.16754	1210.00781	-852.19897	249.39209	1060.43530	-829.59967	163.41751	982.31525	-853.74475	40.89975	918.97766	-824.46436	84.23668	889.21021	-818.96503	7.05702	854.04639	-1265.97852	291.45050	1389.30676	-1360.25452	375.17065	1195.64624	-1360.15906	390.93039	1072.41895	-1391.97351	382.78345	952.91266	-1380.53345	317.83676	825.46210	-1414.26709	364.97168	833.24237	-1414.18518	341.00790	749.50439	-1010.57953	252.24960	926.92554	-1227.29993	236.74371	933.87585	-1079.84009	433.83313	941.96912	-1224.32959	421.22379	941.40741	-973.11768	337.42255	598.18396	-994.08813	373.04471	465.98212	-997.75665	458.78763	295.65479	-1062.27527	523.59308	88.81644	-1117.61450	569.97076	68.44321	-1050.43726	383.48483	35.67871	-1296.27197	208.54311	609.10883	-1267.35437	147.76180	465.03845	-1280.43445	158.91673	291.67682	-1239.12549	122.37580	84.32429	-1186.08813	156.56506	34.95686	-1245.10229	-20.97241	74.45313	-1144.74768	194.95982	1700.87061	-3101.82910	1973.17285	1023.34412	-3140.73364	2012.48083	1021.92517			 
